<mxfile host="app.diagrams.net" modified="2024-01-22T06:02:03.100Z" agent="Mozilla/5.0 (Macintosh; Intel Mac OS X 10_15_7) AppleWebKit/537.36 (KHTML, like Gecko) Chrome/120.0.0.0 Safari/537.36" etag="hRoYlfimGpZYCTLvY6T5" version="22.1.21" type="github">
  <diagram id="C5RBs43oDa-KdzZeNtuy" name="Page-1">
    <mxGraphModel dx="6753" dy="3215" grid="1" gridSize="10" guides="1" tooltips="1" connect="1" arrows="1" fold="1" page="1" pageScale="1" pageWidth="827" pageHeight="1169" math="0" shadow="0">
      <root>
        <mxCell id="WIyWlLk6GJQsqaUBKTNV-0" />
        <mxCell id="WIyWlLk6GJQsqaUBKTNV-1" parent="WIyWlLk6GJQsqaUBKTNV-0" />
        <mxCell id="WIyWlLk6GJQsqaUBKTNV-4" value="Yes" style="rounded=0;html=1;jettySize=auto;orthogonalLoop=1;fontSize=11;endArrow=block;endFill=0;endSize=8;strokeWidth=1;shadow=0;labelBackgroundColor=none;edgeStyle=orthogonalEdgeStyle;" parent="WIyWlLk6GJQsqaUBKTNV-1" edge="1">
          <mxGeometry y="20" relative="1" as="geometry">
            <mxPoint as="offset" />
            <mxPoint x="220" y="290" as="targetPoint" />
          </mxGeometry>
        </mxCell>
        <mxCell id="WIyWlLk6GJQsqaUBKTNV-5" value="No" style="edgeStyle=orthogonalEdgeStyle;rounded=0;html=1;jettySize=auto;orthogonalLoop=1;fontSize=11;endArrow=block;endFill=0;endSize=8;strokeWidth=1;shadow=0;labelBackgroundColor=none;" parent="WIyWlLk6GJQsqaUBKTNV-1" edge="1">
          <mxGeometry y="10" relative="1" as="geometry">
            <mxPoint as="offset" />
            <mxPoint x="270" y="210" as="sourcePoint" />
          </mxGeometry>
        </mxCell>
        <mxCell id="WIyWlLk6GJQsqaUBKTNV-8" value="No" style="rounded=0;html=1;jettySize=auto;orthogonalLoop=1;fontSize=11;endArrow=block;endFill=0;endSize=8;strokeWidth=1;shadow=0;labelBackgroundColor=none;edgeStyle=orthogonalEdgeStyle;" parent="WIyWlLk6GJQsqaUBKTNV-1" edge="1">
          <mxGeometry x="0.3333" y="20" relative="1" as="geometry">
            <mxPoint as="offset" />
            <mxPoint x="220" y="430" as="targetPoint" />
          </mxGeometry>
        </mxCell>
        <mxCell id="WIyWlLk6GJQsqaUBKTNV-9" value="Yes" style="edgeStyle=orthogonalEdgeStyle;rounded=0;html=1;jettySize=auto;orthogonalLoop=1;fontSize=11;endArrow=block;endFill=0;endSize=8;strokeWidth=1;shadow=0;labelBackgroundColor=none;" parent="WIyWlLk6GJQsqaUBKTNV-1" edge="1">
          <mxGeometry y="10" relative="1" as="geometry">
            <mxPoint as="offset" />
            <mxPoint x="320" y="330" as="targetPoint" />
          </mxGeometry>
        </mxCell>
        <mxCell id="5p1ZKA-3Zw_9LjytfoNm-26" value="" style="edgeStyle=orthogonalEdgeStyle;rounded=0;orthogonalLoop=1;jettySize=auto;html=1;" parent="WIyWlLk6GJQsqaUBKTNV-1" source="5p1ZKA-3Zw_9LjytfoNm-1" target="5p1ZKA-3Zw_9LjytfoNm-25" edge="1">
          <mxGeometry relative="1" as="geometry" />
        </mxCell>
        <mxCell id="5p1ZKA-3Zw_9LjytfoNm-1" value="" style="html=1;whiteSpace=wrap;shape=isoCube2;backgroundOutline=1;isoAngle=15;" parent="WIyWlLk6GJQsqaUBKTNV-1" vertex="1">
          <mxGeometry x="-320" y="190" width="110" height="180" as="geometry" />
        </mxCell>
        <mxCell id="5p1ZKA-3Zw_9LjytfoNm-12" value="" style="edgeStyle=orthogonalEdgeStyle;rounded=0;orthogonalLoop=1;jettySize=auto;html=1;" parent="WIyWlLk6GJQsqaUBKTNV-1" source="5p1ZKA-3Zw_9LjytfoNm-4" target="5p1ZKA-3Zw_9LjytfoNm-11" edge="1">
          <mxGeometry relative="1" as="geometry" />
        </mxCell>
        <mxCell id="5p1ZKA-3Zw_9LjytfoNm-4" value="Создание встречи" style="rounded=1;whiteSpace=wrap;html=1;" parent="WIyWlLk6GJQsqaUBKTNV-1" vertex="1">
          <mxGeometry x="260" y="250" width="120" height="60" as="geometry" />
        </mxCell>
        <mxCell id="5p1ZKA-3Zw_9LjytfoNm-16" value="" style="edgeStyle=orthogonalEdgeStyle;rounded=0;orthogonalLoop=1;jettySize=auto;html=1;" parent="WIyWlLk6GJQsqaUBKTNV-1" source="5p1ZKA-3Zw_9LjytfoNm-11" target="5p1ZKA-3Zw_9LjytfoNm-15" edge="1">
          <mxGeometry relative="1" as="geometry" />
        </mxCell>
        <mxCell id="5p1ZKA-3Zw_9LjytfoNm-17" value="Не заключен договор" style="edgeLabel;html=1;align=center;verticalAlign=middle;resizable=0;points=[];" parent="5p1ZKA-3Zw_9LjytfoNm-16" vertex="1" connectable="0">
          <mxGeometry x="-0.0917" y="-4" relative="1" as="geometry">
            <mxPoint y="-4" as="offset" />
          </mxGeometry>
        </mxCell>
        <mxCell id="5p1ZKA-3Zw_9LjytfoNm-23" style="edgeStyle=orthogonalEdgeStyle;rounded=0;orthogonalLoop=1;jettySize=auto;html=1;entryX=0;entryY=0.5;entryDx=0;entryDy=0;" parent="WIyWlLk6GJQsqaUBKTNV-1" source="5p1ZKA-3Zw_9LjytfoNm-11" target="5p1ZKA-3Zw_9LjytfoNm-21" edge="1">
          <mxGeometry relative="1" as="geometry" />
        </mxCell>
        <mxCell id="5p1ZKA-3Zw_9LjytfoNm-24" value="Заключен договор&lt;br&gt;" style="edgeLabel;html=1;align=center;verticalAlign=middle;resizable=0;points=[];" parent="5p1ZKA-3Zw_9LjytfoNm-23" vertex="1" connectable="0">
          <mxGeometry x="-0.3" y="1" relative="1" as="geometry">
            <mxPoint x="27" y="1" as="offset" />
          </mxGeometry>
        </mxCell>
        <mxCell id="5p1ZKA-3Zw_9LjytfoNm-77" value="" style="edgeStyle=orthogonalEdgeStyle;rounded=0;orthogonalLoop=1;jettySize=auto;html=1;" parent="WIyWlLk6GJQsqaUBKTNV-1" source="5p1ZKA-3Zw_9LjytfoNm-11" target="5p1ZKA-3Zw_9LjytfoNm-76" edge="1">
          <mxGeometry relative="1" as="geometry" />
        </mxCell>
        <mxCell id="5p1ZKA-3Zw_9LjytfoNm-11" value="Завершение" style="whiteSpace=wrap;html=1;rounded=1;" parent="WIyWlLk6GJQsqaUBKTNV-1" vertex="1">
          <mxGeometry x="480" y="250" width="120" height="60" as="geometry" />
        </mxCell>
        <mxCell id="5p1ZKA-3Zw_9LjytfoNm-18" style="edgeStyle=orthogonalEdgeStyle;rounded=0;orthogonalLoop=1;jettySize=auto;html=1;entryX=0.5;entryY=1;entryDx=0;entryDy=0;" parent="WIyWlLk6GJQsqaUBKTNV-1" source="5p1ZKA-3Zw_9LjytfoNm-15" target="5p1ZKA-3Zw_9LjytfoNm-25" edge="1">
          <mxGeometry relative="1" as="geometry">
            <mxPoint x="260" y="450" as="targetPoint" />
          </mxGeometry>
        </mxCell>
        <mxCell id="5p1ZKA-3Zw_9LjytfoNm-15" value="Обратная связь, почему не был заключен договор" style="whiteSpace=wrap;html=1;rounded=1;" parent="WIyWlLk6GJQsqaUBKTNV-1" vertex="1">
          <mxGeometry x="480" y="420" width="120" height="60" as="geometry" />
        </mxCell>
        <mxCell id="5p1ZKA-3Zw_9LjytfoNm-20" value="" style="edgeStyle=orthogonalEdgeStyle;rounded=0;orthogonalLoop=1;jettySize=auto;html=1;" parent="WIyWlLk6GJQsqaUBKTNV-1" source="5p1ZKA-3Zw_9LjytfoNm-21" target="5p1ZKA-3Zw_9LjytfoNm-22" edge="1">
          <mxGeometry relative="1" as="geometry" />
        </mxCell>
        <mxCell id="5p1ZKA-3Zw_9LjytfoNm-21" value="Создание договора" style="shape=hexagon;perimeter=hexagonPerimeter2;whiteSpace=wrap;html=1;fixedSize=1;rounded=1;" parent="WIyWlLk6GJQsqaUBKTNV-1" vertex="1">
          <mxGeometry x="760" y="240" width="160" height="80" as="geometry" />
        </mxCell>
        <mxCell id="5p1ZKA-3Zw_9LjytfoNm-53" value="" style="edgeStyle=orthogonalEdgeStyle;rounded=0;orthogonalLoop=1;jettySize=auto;html=1;" parent="WIyWlLk6GJQsqaUBKTNV-1" source="5p1ZKA-3Zw_9LjytfoNm-22" target="5p1ZKA-3Zw_9LjytfoNm-52" edge="1">
          <mxGeometry relative="1" as="geometry" />
        </mxCell>
        <mxCell id="5p1ZKA-3Zw_9LjytfoNm-67" value="" style="edgeStyle=orthogonalEdgeStyle;rounded=0;orthogonalLoop=1;jettySize=auto;html=1;" parent="WIyWlLk6GJQsqaUBKTNV-1" source="5p1ZKA-3Zw_9LjytfoNm-22" target="5p1ZKA-3Zw_9LjytfoNm-66" edge="1">
          <mxGeometry relative="1" as="geometry" />
        </mxCell>
        <mxCell id="5p1ZKA-3Zw_9LjytfoNm-22" value="Категория товаров&lt;br&gt;" style="shape=hexagon;perimeter=hexagonPerimeter2;whiteSpace=wrap;html=1;fixedSize=1;rounded=1;" parent="WIyWlLk6GJQsqaUBKTNV-1" vertex="1">
          <mxGeometry x="760" y="390" width="160" height="80" as="geometry" />
        </mxCell>
        <mxCell id="5p1ZKA-3Zw_9LjytfoNm-25" value="Поиск клиента" style="whiteSpace=wrap;html=1;" parent="WIyWlLk6GJQsqaUBKTNV-1" vertex="1">
          <mxGeometry x="-145" y="250" width="145" height="60" as="geometry" />
        </mxCell>
        <mxCell id="5p1ZKA-3Zw_9LjytfoNm-34" value="" style="edgeStyle=orthogonalEdgeStyle;rounded=0;orthogonalLoop=1;jettySize=auto;html=1;entryX=0;entryY=0.5;entryDx=0;entryDy=0;" parent="WIyWlLk6GJQsqaUBKTNV-1" source="5p1ZKA-3Zw_9LjytfoNm-25" target="5p1ZKA-3Zw_9LjytfoNm-4" edge="1">
          <mxGeometry relative="1" as="geometry">
            <mxPoint x="320" y="280" as="targetPoint" />
            <mxPoint x="-15" y="280" as="sourcePoint" />
          </mxGeometry>
        </mxCell>
        <mxCell id="5p1ZKA-3Zw_9LjytfoNm-40" style="edgeStyle=orthogonalEdgeStyle;rounded=0;orthogonalLoop=1;jettySize=auto;html=1;" parent="WIyWlLk6GJQsqaUBKTNV-1" source="5p1ZKA-3Zw_9LjytfoNm-33" edge="1">
          <mxGeometry relative="1" as="geometry">
            <mxPoint x="113" y="280" as="targetPoint" />
          </mxGeometry>
        </mxCell>
        <mxCell id="5p1ZKA-3Zw_9LjytfoNm-42" value="" style="edgeStyle=orthogonalEdgeStyle;rounded=0;orthogonalLoop=1;jettySize=auto;html=1;" parent="WIyWlLk6GJQsqaUBKTNV-1" source="5p1ZKA-3Zw_9LjytfoNm-33" target="5p1ZKA-3Zw_9LjytfoNm-41" edge="1">
          <mxGeometry relative="1" as="geometry" />
        </mxCell>
        <mxCell id="5p1ZKA-3Zw_9LjytfoNm-44" value="" style="edgeStyle=orthogonalEdgeStyle;rounded=0;orthogonalLoop=1;jettySize=auto;html=1;" parent="WIyWlLk6GJQsqaUBKTNV-1" source="5p1ZKA-3Zw_9LjytfoNm-33" target="5p1ZKA-3Zw_9LjytfoNm-43" edge="1">
          <mxGeometry relative="1" as="geometry" />
        </mxCell>
        <mxCell id="5p1ZKA-3Zw_9LjytfoNm-46" value="" style="edgeStyle=orthogonalEdgeStyle;rounded=0;orthogonalLoop=1;jettySize=auto;html=1;" parent="WIyWlLk6GJQsqaUBKTNV-1" source="5p1ZKA-3Zw_9LjytfoNm-33" target="5p1ZKA-3Zw_9LjytfoNm-45" edge="1">
          <mxGeometry relative="1" as="geometry" />
        </mxCell>
        <mxCell id="5p1ZKA-3Zw_9LjytfoNm-33" value="Введение актуальных контактных данных" style="rounded=1;whiteSpace=wrap;html=1;" parent="WIyWlLk6GJQsqaUBKTNV-1" vertex="1">
          <mxGeometry x="40" y="130" width="145" height="70" as="geometry" />
        </mxCell>
        <mxCell id="5p1ZKA-3Zw_9LjytfoNm-49" value="" style="edgeStyle=orthogonalEdgeStyle;rounded=0;orthogonalLoop=1;jettySize=auto;html=1;entryX=0;entryY=0.5;entryDx=0;entryDy=0;exitX=0.5;exitY=0;exitDx=0;exitDy=0;" parent="WIyWlLk6GJQsqaUBKTNV-1" source="5p1ZKA-3Zw_9LjytfoNm-41" target="5p1ZKA-3Zw_9LjytfoNm-48" edge="1">
          <mxGeometry relative="1" as="geometry" />
        </mxCell>
        <mxCell id="5p1ZKA-3Zw_9LjytfoNm-41" value="Спец" style="rhombus;whiteSpace=wrap;html=1;rounded=1;" parent="WIyWlLk6GJQsqaUBKTNV-1" vertex="1">
          <mxGeometry x="-80" y="20" width="80" height="80" as="geometry" />
        </mxCell>
        <mxCell id="5p1ZKA-3Zw_9LjytfoNm-50" style="edgeStyle=orthogonalEdgeStyle;rounded=0;orthogonalLoop=1;jettySize=auto;html=1;" parent="WIyWlLk6GJQsqaUBKTNV-1" source="5p1ZKA-3Zw_9LjytfoNm-43" target="5p1ZKA-3Zw_9LjytfoNm-48" edge="1">
          <mxGeometry relative="1" as="geometry" />
        </mxCell>
        <mxCell id="5p1ZKA-3Zw_9LjytfoNm-43" value="Руководитель&lt;br&gt;" style="rhombus;whiteSpace=wrap;html=1;rounded=1;" parent="WIyWlLk6GJQsqaUBKTNV-1" vertex="1">
          <mxGeometry x="58" y="-25" width="110" height="80" as="geometry" />
        </mxCell>
        <mxCell id="5p1ZKA-3Zw_9LjytfoNm-51" style="edgeStyle=orthogonalEdgeStyle;rounded=0;orthogonalLoop=1;jettySize=auto;html=1;exitX=0.5;exitY=0;exitDx=0;exitDy=0;entryX=1;entryY=0.5;entryDx=0;entryDy=0;" parent="WIyWlLk6GJQsqaUBKTNV-1" source="5p1ZKA-3Zw_9LjytfoNm-45" target="5p1ZKA-3Zw_9LjytfoNm-48" edge="1">
          <mxGeometry relative="1" as="geometry" />
        </mxCell>
        <mxCell id="5p1ZKA-3Zw_9LjytfoNm-45" value="Бух" style="rhombus;whiteSpace=wrap;html=1;rounded=1;" parent="WIyWlLk6GJQsqaUBKTNV-1" vertex="1">
          <mxGeometry x="230" y="20" width="80" height="80" as="geometry" />
        </mxCell>
        <mxCell id="RjRyZYwcBxq85FyGvVtr-54" style="edgeStyle=orthogonalEdgeStyle;rounded=0;orthogonalLoop=1;jettySize=auto;html=1;entryX=0.5;entryY=1;entryDx=0;entryDy=0;" edge="1" parent="WIyWlLk6GJQsqaUBKTNV-1" source="5p1ZKA-3Zw_9LjytfoNm-48" target="RjRyZYwcBxq85FyGvVtr-50">
          <mxGeometry relative="1" as="geometry">
            <mxPoint x="460" y="2300" as="targetPoint" />
            <Array as="points">
              <mxPoint x="113" y="-440" />
              <mxPoint x="2251" y="-440" />
              <mxPoint x="2251" y="2290" />
              <mxPoint x="440" y="2290" />
            </Array>
          </mxGeometry>
        </mxCell>
        <mxCell id="5p1ZKA-3Zw_9LjytfoNm-48" value="0.5" style="ellipse;whiteSpace=wrap;html=1;rounded=1;" parent="WIyWlLk6GJQsqaUBKTNV-1" vertex="1">
          <mxGeometry x="72.5" y="-170" width="80" height="80" as="geometry" />
        </mxCell>
        <mxCell id="5p1ZKA-3Zw_9LjytfoNm-57" value="" style="edgeStyle=orthogonalEdgeStyle;rounded=0;orthogonalLoop=1;jettySize=auto;html=1;" parent="WIyWlLk6GJQsqaUBKTNV-1" source="5p1ZKA-3Zw_9LjytfoNm-52" target="5p1ZKA-3Zw_9LjytfoNm-56" edge="1">
          <mxGeometry relative="1" as="geometry" />
        </mxCell>
        <mxCell id="5p1ZKA-3Zw_9LjytfoNm-59" value="" style="edgeStyle=orthogonalEdgeStyle;rounded=0;orthogonalLoop=1;jettySize=auto;html=1;entryX=0;entryY=0.5;entryDx=0;entryDy=0;" parent="WIyWlLk6GJQsqaUBKTNV-1" source="5p1ZKA-3Zw_9LjytfoNm-52" target="5p1ZKA-3Zw_9LjytfoNm-58" edge="1">
          <mxGeometry relative="1" as="geometry" />
        </mxCell>
        <mxCell id="5p1ZKA-3Zw_9LjytfoNm-61" value="" style="edgeStyle=orthogonalEdgeStyle;rounded=0;orthogonalLoop=1;jettySize=auto;html=1;entryX=0;entryY=0.5;entryDx=0;entryDy=0;" parent="WIyWlLk6GJQsqaUBKTNV-1" source="5p1ZKA-3Zw_9LjytfoNm-52" target="5p1ZKA-3Zw_9LjytfoNm-60" edge="1">
          <mxGeometry relative="1" as="geometry">
            <Array as="points">
              <mxPoint x="1170" y="180" />
              <mxPoint x="1170" y="305" />
            </Array>
          </mxGeometry>
        </mxCell>
        <mxCell id="5p1ZKA-3Zw_9LjytfoNm-52" value="Типы Категорий товаров" style="whiteSpace=wrap;html=1;rounded=1;" parent="WIyWlLk6GJQsqaUBKTNV-1" vertex="1">
          <mxGeometry x="1000" y="150" width="120" height="60" as="geometry" />
        </mxCell>
        <mxCell id="RjRyZYwcBxq85FyGvVtr-25" value="" style="edgeStyle=orthogonalEdgeStyle;rounded=0;orthogonalLoop=1;jettySize=auto;html=1;" edge="1" parent="WIyWlLk6GJQsqaUBKTNV-1" source="5p1ZKA-3Zw_9LjytfoNm-56" target="RjRyZYwcBxq85FyGvVtr-24">
          <mxGeometry relative="1" as="geometry" />
        </mxCell>
        <mxCell id="5p1ZKA-3Zw_9LjytfoNm-56" value="Протравитель&lt;br&gt;" style="rhombus;whiteSpace=wrap;html=1;rounded=1;" parent="WIyWlLk6GJQsqaUBKTNV-1" vertex="1">
          <mxGeometry x="1220" y="140" width="130" height="80" as="geometry" />
        </mxCell>
        <mxCell id="RjRyZYwcBxq85FyGvVtr-23" value="" style="edgeStyle=orthogonalEdgeStyle;rounded=0;orthogonalLoop=1;jettySize=auto;html=1;" edge="1" parent="WIyWlLk6GJQsqaUBKTNV-1" source="5p1ZKA-3Zw_9LjytfoNm-58" target="RjRyZYwcBxq85FyGvVtr-22">
          <mxGeometry relative="1" as="geometry" />
        </mxCell>
        <mxCell id="5p1ZKA-3Zw_9LjytfoNm-58" value="Гербициды" style="rhombus;whiteSpace=wrap;html=1;rounded=1;" parent="WIyWlLk6GJQsqaUBKTNV-1" vertex="1">
          <mxGeometry x="1220" y="20" width="120" height="80" as="geometry" />
        </mxCell>
        <mxCell id="RjRyZYwcBxq85FyGvVtr-27" value="" style="edgeStyle=orthogonalEdgeStyle;rounded=0;orthogonalLoop=1;jettySize=auto;html=1;" edge="1" parent="WIyWlLk6GJQsqaUBKTNV-1" source="5p1ZKA-3Zw_9LjytfoNm-60" target="RjRyZYwcBxq85FyGvVtr-26">
          <mxGeometry relative="1" as="geometry" />
        </mxCell>
        <mxCell id="5p1ZKA-3Zw_9LjytfoNm-60" value="Сзр" style="rhombus;whiteSpace=wrap;html=1;rounded=1;" parent="WIyWlLk6GJQsqaUBKTNV-1" vertex="1">
          <mxGeometry x="1220" y="265" width="130" height="80" as="geometry" />
        </mxCell>
        <mxCell id="5p1ZKA-3Zw_9LjytfoNm-62" value="" style="edgeStyle=orthogonalEdgeStyle;rounded=0;orthogonalLoop=1;jettySize=auto;html=1;exitX=1;exitY=0.5;exitDx=0;exitDy=0;entryX=0;entryY=0.5;entryDx=0;entryDy=0;" parent="WIyWlLk6GJQsqaUBKTNV-1" source="5p1ZKA-3Zw_9LjytfoNm-52" target="5p1ZKA-3Zw_9LjytfoNm-63" edge="1">
          <mxGeometry relative="1" as="geometry">
            <mxPoint x="1120" y="300" as="sourcePoint" />
            <Array as="points">
              <mxPoint x="1170" y="180" />
              <mxPoint x="1170" y="430" />
            </Array>
          </mxGeometry>
        </mxCell>
        <mxCell id="RjRyZYwcBxq85FyGvVtr-29" value="" style="edgeStyle=orthogonalEdgeStyle;rounded=0;orthogonalLoop=1;jettySize=auto;html=1;" edge="1" parent="WIyWlLk6GJQsqaUBKTNV-1" source="5p1ZKA-3Zw_9LjytfoNm-63" target="RjRyZYwcBxq85FyGvVtr-28">
          <mxGeometry relative="1" as="geometry" />
        </mxCell>
        <mxCell id="5p1ZKA-3Zw_9LjytfoNm-63" value="БиоСтимуляторы&lt;br&gt;" style="rhombus;whiteSpace=wrap;html=1;rounded=1;" parent="WIyWlLk6GJQsqaUBKTNV-1" vertex="1">
          <mxGeometry x="1220" y="390" width="140" height="80" as="geometry" />
        </mxCell>
        <mxCell id="5p1ZKA-3Zw_9LjytfoNm-64" value="" style="edgeStyle=orthogonalEdgeStyle;rounded=0;orthogonalLoop=1;jettySize=auto;html=1;entryX=0;entryY=0.5;entryDx=0;entryDy=0;exitX=1;exitY=0.5;exitDx=0;exitDy=0;" parent="WIyWlLk6GJQsqaUBKTNV-1" source="5p1ZKA-3Zw_9LjytfoNm-52" target="5p1ZKA-3Zw_9LjytfoNm-65" edge="1">
          <mxGeometry relative="1" as="geometry">
            <mxPoint x="1120" y="160" as="sourcePoint" />
          </mxGeometry>
        </mxCell>
        <mxCell id="RjRyZYwcBxq85FyGvVtr-21" value="" style="edgeStyle=orthogonalEdgeStyle;rounded=0;orthogonalLoop=1;jettySize=auto;html=1;" edge="1" parent="WIyWlLk6GJQsqaUBKTNV-1" source="5p1ZKA-3Zw_9LjytfoNm-65" target="RjRyZYwcBxq85FyGvVtr-20">
          <mxGeometry relative="1" as="geometry" />
        </mxCell>
        <mxCell id="5p1ZKA-3Zw_9LjytfoNm-65" value="Глифосат" style="rhombus;whiteSpace=wrap;html=1;rounded=1;" parent="WIyWlLk6GJQsqaUBKTNV-1" vertex="1">
          <mxGeometry x="1220" y="-100" width="120" height="80" as="geometry" />
        </mxCell>
        <mxCell id="5p1ZKA-3Zw_9LjytfoNm-69" value="" style="edgeStyle=orthogonalEdgeStyle;rounded=0;orthogonalLoop=1;jettySize=auto;html=1;" parent="WIyWlLk6GJQsqaUBKTNV-1" source="5p1ZKA-3Zw_9LjytfoNm-66" target="5p1ZKA-3Zw_9LjytfoNm-68" edge="1">
          <mxGeometry relative="1" as="geometry" />
        </mxCell>
        <mxCell id="5p1ZKA-3Zw_9LjytfoNm-79" value="" style="edgeStyle=orthogonalEdgeStyle;rounded=0;orthogonalLoop=1;jettySize=auto;html=1;" parent="WIyWlLk6GJQsqaUBKTNV-1" source="5p1ZKA-3Zw_9LjytfoNm-66" target="5p1ZKA-3Zw_9LjytfoNm-78" edge="1">
          <mxGeometry relative="1" as="geometry" />
        </mxCell>
        <mxCell id="5p1ZKA-3Zw_9LjytfoNm-66" value="Культура" style="shape=hexagon;perimeter=hexagonPerimeter2;whiteSpace=wrap;html=1;fixedSize=1;rounded=1;" parent="WIyWlLk6GJQsqaUBKTNV-1" vertex="1">
          <mxGeometry x="770" y="550" width="140" height="80" as="geometry" />
        </mxCell>
        <mxCell id="5p1ZKA-3Zw_9LjytfoNm-71" value="" style="edgeStyle=orthogonalEdgeStyle;rounded=0;orthogonalLoop=1;jettySize=auto;html=1;" parent="WIyWlLk6GJQsqaUBKTNV-1" source="5p1ZKA-3Zw_9LjytfoNm-68" target="5p1ZKA-3Zw_9LjytfoNm-70" edge="1">
          <mxGeometry relative="1" as="geometry" />
        </mxCell>
        <mxCell id="5p1ZKA-3Zw_9LjytfoNm-73" value="" style="edgeStyle=orthogonalEdgeStyle;rounded=0;orthogonalLoop=1;jettySize=auto;html=1;entryX=0;entryY=0.5;entryDx=0;entryDy=0;" parent="WIyWlLk6GJQsqaUBKTNV-1" source="5p1ZKA-3Zw_9LjytfoNm-68" target="5p1ZKA-3Zw_9LjytfoNm-72" edge="1">
          <mxGeometry relative="1" as="geometry" />
        </mxCell>
        <mxCell id="5p1ZKA-3Zw_9LjytfoNm-68" value="Тип применения Культур" style="whiteSpace=wrap;html=1;rounded=1;" parent="WIyWlLk6GJQsqaUBKTNV-1" vertex="1">
          <mxGeometry x="980" y="560" width="120" height="60" as="geometry" />
        </mxCell>
        <mxCell id="RjRyZYwcBxq85FyGvVtr-35" value="" style="edgeStyle=orthogonalEdgeStyle;rounded=0;orthogonalLoop=1;jettySize=auto;html=1;" edge="1" parent="WIyWlLk6GJQsqaUBKTNV-1" source="5p1ZKA-3Zw_9LjytfoNm-70" target="RjRyZYwcBxq85FyGvVtr-34">
          <mxGeometry relative="1" as="geometry" />
        </mxCell>
        <mxCell id="5p1ZKA-3Zw_9LjytfoNm-70" value="Кукуруза" style="rhombus;whiteSpace=wrap;html=1;rounded=1;" parent="WIyWlLk6GJQsqaUBKTNV-1" vertex="1">
          <mxGeometry x="1200" y="550" width="80" height="80" as="geometry" />
        </mxCell>
        <mxCell id="RjRyZYwcBxq85FyGvVtr-33" value="" style="edgeStyle=orthogonalEdgeStyle;rounded=0;orthogonalLoop=1;jettySize=auto;html=1;" edge="1" parent="WIyWlLk6GJQsqaUBKTNV-1" source="5p1ZKA-3Zw_9LjytfoNm-72" target="RjRyZYwcBxq85FyGvVtr-32">
          <mxGeometry relative="1" as="geometry" />
        </mxCell>
        <mxCell id="5p1ZKA-3Zw_9LjytfoNm-72" value="Рапс" style="rhombus;whiteSpace=wrap;html=1;rounded=1;" parent="WIyWlLk6GJQsqaUBKTNV-1" vertex="1">
          <mxGeometry x="1200" y="680" width="80" height="80" as="geometry" />
        </mxCell>
        <mxCell id="5p1ZKA-3Zw_9LjytfoNm-74" value="" style="edgeStyle=orthogonalEdgeStyle;rounded=0;orthogonalLoop=1;jettySize=auto;html=1;entryX=0;entryY=0.5;entryDx=0;entryDy=0;exitX=1;exitY=0.5;exitDx=0;exitDy=0;" parent="WIyWlLk6GJQsqaUBKTNV-1" source="5p1ZKA-3Zw_9LjytfoNm-68" target="5p1ZKA-3Zw_9LjytfoNm-75" edge="1">
          <mxGeometry relative="1" as="geometry">
            <mxPoint x="1100" y="720" as="sourcePoint" />
          </mxGeometry>
        </mxCell>
        <mxCell id="RjRyZYwcBxq85FyGvVtr-31" value="" style="edgeStyle=orthogonalEdgeStyle;rounded=0;orthogonalLoop=1;jettySize=auto;html=1;" edge="1" parent="WIyWlLk6GJQsqaUBKTNV-1" source="5p1ZKA-3Zw_9LjytfoNm-75" target="RjRyZYwcBxq85FyGvVtr-30">
          <mxGeometry relative="1" as="geometry" />
        </mxCell>
        <mxCell id="5p1ZKA-3Zw_9LjytfoNm-75" value="Семена" style="rhombus;whiteSpace=wrap;html=1;rounded=1;" parent="WIyWlLk6GJQsqaUBKTNV-1" vertex="1">
          <mxGeometry x="1200" y="810" width="80" height="80" as="geometry" />
        </mxCell>
        <mxCell id="RjRyZYwcBxq85FyGvVtr-56" style="edgeStyle=orthogonalEdgeStyle;rounded=0;orthogonalLoop=1;jettySize=auto;html=1;" edge="1" parent="WIyWlLk6GJQsqaUBKTNV-1" source="5p1ZKA-3Zw_9LjytfoNm-76">
          <mxGeometry relative="1" as="geometry">
            <mxPoint x="690" y="-430" as="targetPoint" />
          </mxGeometry>
        </mxCell>
        <mxCell id="5p1ZKA-3Zw_9LjytfoNm-76" value="0.7" style="ellipse;whiteSpace=wrap;html=1;rounded=1;" parent="WIyWlLk6GJQsqaUBKTNV-1" vertex="1">
          <mxGeometry x="650" y="90" width="80" height="80" as="geometry" />
        </mxCell>
        <mxCell id="5p1ZKA-3Zw_9LjytfoNm-81" value="" style="edgeStyle=orthogonalEdgeStyle;rounded=0;orthogonalLoop=1;jettySize=auto;html=1;" parent="WIyWlLk6GJQsqaUBKTNV-1" source="5p1ZKA-3Zw_9LjytfoNm-78" target="5p1ZKA-3Zw_9LjytfoNm-80" edge="1">
          <mxGeometry relative="1" as="geometry" />
        </mxCell>
        <mxCell id="5p1ZKA-3Zw_9LjytfoNm-85" value="" style="edgeStyle=orthogonalEdgeStyle;rounded=0;orthogonalLoop=1;jettySize=auto;html=1;entryX=0;entryY=0.5;entryDx=0;entryDy=0;" parent="WIyWlLk6GJQsqaUBKTNV-1" source="5p1ZKA-3Zw_9LjytfoNm-78" target="5p1ZKA-3Zw_9LjytfoNm-84" edge="1">
          <mxGeometry relative="1" as="geometry">
            <Array as="points">
              <mxPoint x="1110" y="750" />
              <mxPoint x="1110" y="950" />
            </Array>
          </mxGeometry>
        </mxCell>
        <mxCell id="5p1ZKA-3Zw_9LjytfoNm-78" value="Условия оплаты&lt;br&gt;" style="shape=hexagon;perimeter=hexagonPerimeter2;whiteSpace=wrap;html=1;fixedSize=1;rounded=1;" parent="WIyWlLk6GJQsqaUBKTNV-1" vertex="1">
          <mxGeometry x="770" y="710" width="140" height="80" as="geometry" />
        </mxCell>
        <mxCell id="5p1ZKA-3Zw_9LjytfoNm-83" value="" style="edgeStyle=orthogonalEdgeStyle;rounded=0;orthogonalLoop=1;jettySize=auto;html=1;entryX=0;entryY=0.5;entryDx=0;entryDy=0;" parent="WIyWlLk6GJQsqaUBKTNV-1" source="5p1ZKA-3Zw_9LjytfoNm-80" target="5p1ZKA-3Zw_9LjytfoNm-82" edge="1">
          <mxGeometry relative="1" as="geometry" />
        </mxCell>
        <mxCell id="RjRyZYwcBxq85FyGvVtr-13" value="" style="edgeStyle=orthogonalEdgeStyle;rounded=0;orthogonalLoop=1;jettySize=auto;html=1;" edge="1" parent="WIyWlLk6GJQsqaUBKTNV-1" source="5p1ZKA-3Zw_9LjytfoNm-80" target="RjRyZYwcBxq85FyGvVtr-12">
          <mxGeometry relative="1" as="geometry" />
        </mxCell>
        <mxCell id="5p1ZKA-3Zw_9LjytfoNm-80" value="Подписание" style="shape=hexagon;perimeter=hexagonPerimeter2;whiteSpace=wrap;html=1;fixedSize=1;rounded=1;" parent="WIyWlLk6GJQsqaUBKTNV-1" vertex="1">
          <mxGeometry x="770" y="1270" width="140" height="80" as="geometry" />
        </mxCell>
        <mxCell id="5p1ZKA-3Zw_9LjytfoNm-87" value="" style="edgeStyle=orthogonalEdgeStyle;rounded=0;orthogonalLoop=1;jettySize=auto;html=1;entryX=0;entryY=0.5;entryDx=0;entryDy=0;" parent="WIyWlLk6GJQsqaUBKTNV-1" source="5p1ZKA-3Zw_9LjytfoNm-82" target="5p1ZKA-3Zw_9LjytfoNm-86" edge="1">
          <mxGeometry relative="1" as="geometry" />
        </mxCell>
        <mxCell id="5p1ZKA-3Zw_9LjytfoNm-89" value="" style="edgeStyle=orthogonalEdgeStyle;rounded=0;orthogonalLoop=1;jettySize=auto;html=1;" parent="WIyWlLk6GJQsqaUBKTNV-1" source="5p1ZKA-3Zw_9LjytfoNm-82" target="5p1ZKA-3Zw_9LjytfoNm-88" edge="1">
          <mxGeometry relative="1" as="geometry" />
        </mxCell>
        <mxCell id="5p1ZKA-3Zw_9LjytfoNm-82" value="Тип &lt;br&gt;Подписание" style="whiteSpace=wrap;html=1;rounded=1;" parent="WIyWlLk6GJQsqaUBKTNV-1" vertex="1">
          <mxGeometry x="980" y="1450" width="120" height="60" as="geometry" />
        </mxCell>
        <mxCell id="5p1ZKA-3Zw_9LjytfoNm-96" value="" style="edgeStyle=orthogonalEdgeStyle;rounded=0;orthogonalLoop=1;jettySize=auto;html=1;" parent="WIyWlLk6GJQsqaUBKTNV-1" target="5p1ZKA-3Zw_9LjytfoNm-95" edge="1">
          <mxGeometry relative="1" as="geometry">
            <mxPoint x="1767" y="920" as="sourcePoint" />
          </mxGeometry>
        </mxCell>
        <mxCell id="5p1ZKA-3Zw_9LjytfoNm-103" style="edgeStyle=orthogonalEdgeStyle;rounded=0;orthogonalLoop=1;jettySize=auto;html=1;exitX=0.5;exitY=0;exitDx=0;exitDy=0;" parent="WIyWlLk6GJQsqaUBKTNV-1" edge="1">
          <mxGeometry relative="1" as="geometry">
            <mxPoint x="1888" y="780" as="targetPoint" />
            <mxPoint x="1778" y="920" as="sourcePoint" />
            <Array as="points">
              <mxPoint x="1767" y="920" />
              <mxPoint x="1767" y="890" />
              <mxPoint x="1888" y="890" />
            </Array>
          </mxGeometry>
        </mxCell>
        <mxCell id="5p1ZKA-3Zw_9LjytfoNm-106" value="" style="edgeStyle=orthogonalEdgeStyle;rounded=0;orthogonalLoop=1;jettySize=auto;html=1;exitX=0.5;exitY=0;exitDx=0;exitDy=0;entryX=0.5;entryY=1;entryDx=0;entryDy=0;" parent="WIyWlLk6GJQsqaUBKTNV-1" source="5p1ZKA-3Zw_9LjytfoNm-84" target="5p1ZKA-3Zw_9LjytfoNm-99" edge="1">
          <mxGeometry relative="1" as="geometry">
            <mxPoint x="1778" y="920" as="sourcePoint" />
            <Array as="points">
              <mxPoint x="1767" y="890" />
              <mxPoint x="2013" y="890" />
            </Array>
          </mxGeometry>
        </mxCell>
        <mxCell id="5p1ZKA-3Zw_9LjytfoNm-111" style="edgeStyle=orthogonalEdgeStyle;rounded=0;orthogonalLoop=1;jettySize=auto;html=1;entryX=0.5;entryY=1;entryDx=0;entryDy=0;" parent="WIyWlLk6GJQsqaUBKTNV-1" source="5p1ZKA-3Zw_9LjytfoNm-84" target="5p1ZKA-3Zw_9LjytfoNm-110" edge="1">
          <mxGeometry relative="1" as="geometry">
            <Array as="points">
              <mxPoint x="1767" y="890" />
              <mxPoint x="1637" y="890" />
            </Array>
          </mxGeometry>
        </mxCell>
        <mxCell id="5p1ZKA-3Zw_9LjytfoNm-84" value="Тип оплаты" style="whiteSpace=wrap;html=1;rounded=1;" parent="WIyWlLk6GJQsqaUBKTNV-1" vertex="1">
          <mxGeometry x="1707" y="920" width="120" height="60" as="geometry" />
        </mxCell>
        <mxCell id="5p1ZKA-3Zw_9LjytfoNm-91" value="" style="edgeStyle=orthogonalEdgeStyle;rounded=0;orthogonalLoop=1;jettySize=auto;html=1;" parent="WIyWlLk6GJQsqaUBKTNV-1" source="5p1ZKA-3Zw_9LjytfoNm-86" target="5p1ZKA-3Zw_9LjytfoNm-90" edge="1">
          <mxGeometry relative="1" as="geometry" />
        </mxCell>
        <mxCell id="5p1ZKA-3Zw_9LjytfoNm-86" value="Оффлайн" style="rhombus;whiteSpace=wrap;html=1;rounded=1;" parent="WIyWlLk6GJQsqaUBKTNV-1" vertex="1">
          <mxGeometry x="1200" y="1489" width="80" height="80" as="geometry" />
        </mxCell>
        <mxCell id="5p1ZKA-3Zw_9LjytfoNm-92" style="edgeStyle=orthogonalEdgeStyle;rounded=0;orthogonalLoop=1;jettySize=auto;html=1;entryX=0;entryY=0.5;entryDx=0;entryDy=0;" parent="WIyWlLk6GJQsqaUBKTNV-1" source="5p1ZKA-3Zw_9LjytfoNm-88" target="5p1ZKA-3Zw_9LjytfoNm-90" edge="1">
          <mxGeometry relative="1" as="geometry" />
        </mxCell>
        <mxCell id="5p1ZKA-3Zw_9LjytfoNm-88" value="Эцп" style="rhombus;whiteSpace=wrap;html=1;rounded=1;" parent="WIyWlLk6GJQsqaUBKTNV-1" vertex="1">
          <mxGeometry x="1200" y="1390" width="80" height="80" as="geometry" />
        </mxCell>
        <mxCell id="5p1ZKA-3Zw_9LjytfoNm-94" value="" style="edgeStyle=orthogonalEdgeStyle;rounded=0;orthogonalLoop=1;jettySize=auto;html=1;" parent="WIyWlLk6GJQsqaUBKTNV-1" source="5p1ZKA-3Zw_9LjytfoNm-90" target="5p1ZKA-3Zw_9LjytfoNm-93" edge="1">
          <mxGeometry relative="1" as="geometry" />
        </mxCell>
        <mxCell id="5p1ZKA-3Zw_9LjytfoNm-90" value="Передан в офис" style="whiteSpace=wrap;html=1;rounded=1;" parent="WIyWlLk6GJQsqaUBKTNV-1" vertex="1">
          <mxGeometry x="1380" y="1450" width="120" height="60" as="geometry" />
        </mxCell>
        <mxCell id="RjRyZYwcBxq85FyGvVtr-84" style="edgeStyle=orthogonalEdgeStyle;rounded=0;orthogonalLoop=1;jettySize=auto;html=1;" edge="1" parent="WIyWlLk6GJQsqaUBKTNV-1" source="5p1ZKA-3Zw_9LjytfoNm-93">
          <mxGeometry relative="1" as="geometry">
            <mxPoint x="2250" y="1479.9999999999995" as="targetPoint" />
          </mxGeometry>
        </mxCell>
        <mxCell id="5p1ZKA-3Zw_9LjytfoNm-93" value="0.7&lt;br&gt;" style="ellipse;whiteSpace=wrap;html=1;rounded=1;" parent="WIyWlLk6GJQsqaUBKTNV-1" vertex="1">
          <mxGeometry x="1600" y="1440" width="80" height="80" as="geometry" />
        </mxCell>
        <mxCell id="RjRyZYwcBxq85FyGvVtr-39" value="" style="edgeStyle=orthogonalEdgeStyle;rounded=0;orthogonalLoop=1;jettySize=auto;html=1;" edge="1" parent="WIyWlLk6GJQsqaUBKTNV-1" source="5p1ZKA-3Zw_9LjytfoNm-95" target="RjRyZYwcBxq85FyGvVtr-38">
          <mxGeometry relative="1" as="geometry" />
        </mxCell>
        <mxCell id="5p1ZKA-3Zw_9LjytfoNm-95" value="Рассрочка" style="rhombus;whiteSpace=wrap;html=1;rounded=1;" parent="WIyWlLk6GJQsqaUBKTNV-1" vertex="1">
          <mxGeometry x="1717" y="700" width="100" height="80" as="geometry" />
        </mxCell>
        <mxCell id="RjRyZYwcBxq85FyGvVtr-43" value="" style="edgeStyle=orthogonalEdgeStyle;rounded=0;orthogonalLoop=1;jettySize=auto;html=1;" edge="1" parent="WIyWlLk6GJQsqaUBKTNV-1" source="5p1ZKA-3Zw_9LjytfoNm-99" target="RjRyZYwcBxq85FyGvVtr-42">
          <mxGeometry relative="1" as="geometry" />
        </mxCell>
        <mxCell id="5p1ZKA-3Zw_9LjytfoNm-99" value="Наличными" style="rhombus;whiteSpace=wrap;html=1;rounded=1;" parent="WIyWlLk6GJQsqaUBKTNV-1" vertex="1">
          <mxGeometry x="1958" y="700" width="110" height="80" as="geometry" />
        </mxCell>
        <mxCell id="RjRyZYwcBxq85FyGvVtr-41" value="" style="edgeStyle=orthogonalEdgeStyle;rounded=0;orthogonalLoop=1;jettySize=auto;html=1;" edge="1" parent="WIyWlLk6GJQsqaUBKTNV-1" source="5p1ZKA-3Zw_9LjytfoNm-105" target="RjRyZYwcBxq85FyGvVtr-40">
          <mxGeometry relative="1" as="geometry" />
        </mxCell>
        <mxCell id="5p1ZKA-3Zw_9LjytfoNm-105" value="Бартер" style="rhombus;whiteSpace=wrap;html=1;rounded=1;" parent="WIyWlLk6GJQsqaUBKTNV-1" vertex="1">
          <mxGeometry x="1838" y="700" width="100" height="80" as="geometry" />
        </mxCell>
        <mxCell id="RjRyZYwcBxq85FyGvVtr-37" value="" style="edgeStyle=orthogonalEdgeStyle;rounded=0;orthogonalLoop=1;jettySize=auto;html=1;" edge="1" parent="WIyWlLk6GJQsqaUBKTNV-1" source="5p1ZKA-3Zw_9LjytfoNm-110" target="RjRyZYwcBxq85FyGvVtr-36">
          <mxGeometry relative="1" as="geometry" />
        </mxCell>
        <mxCell id="5p1ZKA-3Zw_9LjytfoNm-110" value="БАФ" style="rhombus;whiteSpace=wrap;html=1;rounded=1;" parent="WIyWlLk6GJQsqaUBKTNV-1" vertex="1">
          <mxGeometry x="1587" y="700" width="100" height="80" as="geometry" />
        </mxCell>
        <mxCell id="RjRyZYwcBxq85FyGvVtr-3" value="" style="edgeStyle=orthogonalEdgeStyle;rounded=0;orthogonalLoop=1;jettySize=auto;html=1;" edge="1" parent="WIyWlLk6GJQsqaUBKTNV-1" source="RjRyZYwcBxq85FyGvVtr-0" target="RjRyZYwcBxq85FyGvVtr-2">
          <mxGeometry relative="1" as="geometry" />
        </mxCell>
        <mxCell id="RjRyZYwcBxq85FyGvVtr-0" value="Агентские" style="shape=hexagon;perimeter=hexagonPerimeter2;whiteSpace=wrap;html=1;fixedSize=1;rounded=1;" vertex="1" parent="WIyWlLk6GJQsqaUBKTNV-1">
          <mxGeometry x="770" y="1040" width="140" height="80" as="geometry" />
        </mxCell>
        <mxCell id="RjRyZYwcBxq85FyGvVtr-5" value="" style="edgeStyle=orthogonalEdgeStyle;rounded=0;orthogonalLoop=1;jettySize=auto;html=1;" edge="1" parent="WIyWlLk6GJQsqaUBKTNV-1" source="RjRyZYwcBxq85FyGvVtr-2" target="RjRyZYwcBxq85FyGvVtr-4">
          <mxGeometry relative="1" as="geometry" />
        </mxCell>
        <mxCell id="RjRyZYwcBxq85FyGvVtr-7" value="" style="edgeStyle=orthogonalEdgeStyle;rounded=0;orthogonalLoop=1;jettySize=auto;html=1;" edge="1" parent="WIyWlLk6GJQsqaUBKTNV-1" source="RjRyZYwcBxq85FyGvVtr-2" target="RjRyZYwcBxq85FyGvVtr-6">
          <mxGeometry relative="1" as="geometry">
            <Array as="points">
              <mxPoint x="1130" y="1209" />
            </Array>
          </mxGeometry>
        </mxCell>
        <mxCell id="RjRyZYwcBxq85FyGvVtr-2" value="Признак&lt;br&gt;Агентский" style="whiteSpace=wrap;html=1;rounded=1;" vertex="1" parent="WIyWlLk6GJQsqaUBKTNV-1">
          <mxGeometry x="1070" y="1050" width="120" height="60" as="geometry" />
        </mxCell>
        <mxCell id="RjRyZYwcBxq85FyGvVtr-9" value="" style="edgeStyle=orthogonalEdgeStyle;rounded=0;orthogonalLoop=1;jettySize=auto;html=1;" edge="1" parent="WIyWlLk6GJQsqaUBKTNV-1" source="RjRyZYwcBxq85FyGvVtr-4" target="RjRyZYwcBxq85FyGvVtr-8">
          <mxGeometry relative="1" as="geometry" />
        </mxCell>
        <mxCell id="RjRyZYwcBxq85FyGvVtr-4" value="Да" style="rhombus;whiteSpace=wrap;html=1;rounded=1;" vertex="1" parent="WIyWlLk6GJQsqaUBKTNV-1">
          <mxGeometry x="1290" y="1040" width="80" height="80" as="geometry" />
        </mxCell>
        <mxCell id="RjRyZYwcBxq85FyGvVtr-11" value="" style="edgeStyle=orthogonalEdgeStyle;rounded=0;orthogonalLoop=1;jettySize=auto;html=1;" edge="1" parent="WIyWlLk6GJQsqaUBKTNV-1" source="RjRyZYwcBxq85FyGvVtr-6" target="RjRyZYwcBxq85FyGvVtr-10">
          <mxGeometry relative="1" as="geometry" />
        </mxCell>
        <mxCell id="RjRyZYwcBxq85FyGvVtr-6" value="Нет" style="rhombus;whiteSpace=wrap;html=1;rounded=1;" vertex="1" parent="WIyWlLk6GJQsqaUBKTNV-1">
          <mxGeometry x="1290" y="1169" width="80" height="80" as="geometry" />
        </mxCell>
        <mxCell id="RjRyZYwcBxq85FyGvVtr-83" style="edgeStyle=orthogonalEdgeStyle;rounded=0;orthogonalLoop=1;jettySize=auto;html=1;" edge="1" parent="WIyWlLk6GJQsqaUBKTNV-1" source="RjRyZYwcBxq85FyGvVtr-8">
          <mxGeometry relative="1" as="geometry">
            <mxPoint x="2250" y="1079.9999999999995" as="targetPoint" />
          </mxGeometry>
        </mxCell>
        <mxCell id="RjRyZYwcBxq85FyGvVtr-8" value="0.7&lt;br&gt;" style="ellipse;whiteSpace=wrap;html=1;rounded=1;" vertex="1" parent="WIyWlLk6GJQsqaUBKTNV-1">
          <mxGeometry x="1450" y="1040" width="80" height="80" as="geometry" />
        </mxCell>
        <mxCell id="RjRyZYwcBxq85FyGvVtr-10" value="0" style="ellipse;whiteSpace=wrap;html=1;rounded=1;" vertex="1" parent="WIyWlLk6GJQsqaUBKTNV-1">
          <mxGeometry x="1450" y="1169" width="80" height="80" as="geometry" />
        </mxCell>
        <mxCell id="RjRyZYwcBxq85FyGvVtr-15" value="" style="edgeStyle=orthogonalEdgeStyle;rounded=0;orthogonalLoop=1;jettySize=auto;html=1;" edge="1" parent="WIyWlLk6GJQsqaUBKTNV-1" source="RjRyZYwcBxq85FyGvVtr-12" target="RjRyZYwcBxq85FyGvVtr-14">
          <mxGeometry relative="1" as="geometry" />
        </mxCell>
        <mxCell id="RjRyZYwcBxq85FyGvVtr-49" value="" style="edgeStyle=orthogonalEdgeStyle;rounded=0;orthogonalLoop=1;jettySize=auto;html=1;" edge="1" parent="WIyWlLk6GJQsqaUBKTNV-1" source="RjRyZYwcBxq85FyGvVtr-12" target="RjRyZYwcBxq85FyGvVtr-48">
          <mxGeometry relative="1" as="geometry" />
        </mxCell>
        <mxCell id="RjRyZYwcBxq85FyGvVtr-12" value="Ожидание оплаты" style="shape=hexagon;perimeter=hexagonPerimeter2;whiteSpace=wrap;html=1;fixedSize=1;rounded=1;" vertex="1" parent="WIyWlLk6GJQsqaUBKTNV-1">
          <mxGeometry x="770" y="1700" width="140" height="80" as="geometry" />
        </mxCell>
        <mxCell id="RjRyZYwcBxq85FyGvVtr-17" value="" style="edgeStyle=orthogonalEdgeStyle;rounded=0;orthogonalLoop=1;jettySize=auto;html=1;" edge="1" parent="WIyWlLk6GJQsqaUBKTNV-1" source="RjRyZYwcBxq85FyGvVtr-14" target="RjRyZYwcBxq85FyGvVtr-16">
          <mxGeometry relative="1" as="geometry" />
        </mxCell>
        <mxCell id="RjRyZYwcBxq85FyGvVtr-19" value="" style="edgeStyle=orthogonalEdgeStyle;rounded=0;orthogonalLoop=1;jettySize=auto;html=1;" edge="1" parent="WIyWlLk6GJQsqaUBKTNV-1" source="RjRyZYwcBxq85FyGvVtr-14" target="RjRyZYwcBxq85FyGvVtr-18">
          <mxGeometry relative="1" as="geometry">
            <Array as="points">
              <mxPoint x="1060" y="1880" />
            </Array>
          </mxGeometry>
        </mxCell>
        <mxCell id="RjRyZYwcBxq85FyGvVtr-14" value="Факт оплаты" style="whiteSpace=wrap;html=1;rounded=1;" vertex="1" parent="WIyWlLk6GJQsqaUBKTNV-1">
          <mxGeometry x="1000" y="1710" width="120" height="60" as="geometry" />
        </mxCell>
        <mxCell id="RjRyZYwcBxq85FyGvVtr-45" value="" style="edgeStyle=orthogonalEdgeStyle;rounded=0;orthogonalLoop=1;jettySize=auto;html=1;" edge="1" parent="WIyWlLk6GJQsqaUBKTNV-1" source="RjRyZYwcBxq85FyGvVtr-16" target="RjRyZYwcBxq85FyGvVtr-44">
          <mxGeometry relative="1" as="geometry" />
        </mxCell>
        <mxCell id="RjRyZYwcBxq85FyGvVtr-16" value="Да" style="rhombus;whiteSpace=wrap;html=1;rounded=1;" vertex="1" parent="WIyWlLk6GJQsqaUBKTNV-1">
          <mxGeometry x="1220" y="1700" width="80" height="80" as="geometry" />
        </mxCell>
        <mxCell id="RjRyZYwcBxq85FyGvVtr-47" value="" style="edgeStyle=orthogonalEdgeStyle;rounded=0;orthogonalLoop=1;jettySize=auto;html=1;" edge="1" parent="WIyWlLk6GJQsqaUBKTNV-1" source="RjRyZYwcBxq85FyGvVtr-18" target="RjRyZYwcBxq85FyGvVtr-46">
          <mxGeometry relative="1" as="geometry" />
        </mxCell>
        <mxCell id="RjRyZYwcBxq85FyGvVtr-18" value="Нет" style="rhombus;whiteSpace=wrap;html=1;rounded=1;" vertex="1" parent="WIyWlLk6GJQsqaUBKTNV-1">
          <mxGeometry x="1220" y="1840" width="80" height="80" as="geometry" />
        </mxCell>
        <mxCell id="RjRyZYwcBxq85FyGvVtr-74" style="edgeStyle=orthogonalEdgeStyle;rounded=0;orthogonalLoop=1;jettySize=auto;html=1;entryX=0.5;entryY=0;entryDx=0;entryDy=0;" edge="1" parent="WIyWlLk6GJQsqaUBKTNV-1" source="RjRyZYwcBxq85FyGvVtr-20" target="RjRyZYwcBxq85FyGvVtr-69">
          <mxGeometry relative="1" as="geometry" />
        </mxCell>
        <mxCell id="RjRyZYwcBxq85FyGvVtr-20" value="1,2" style="ellipse;whiteSpace=wrap;html=1;rounded=1;" vertex="1" parent="WIyWlLk6GJQsqaUBKTNV-1">
          <mxGeometry x="1470" y="-100" width="80" height="80" as="geometry" />
        </mxCell>
        <mxCell id="RjRyZYwcBxq85FyGvVtr-73" style="edgeStyle=orthogonalEdgeStyle;rounded=0;orthogonalLoop=1;jettySize=auto;html=1;entryX=0.25;entryY=0;entryDx=0;entryDy=0;" edge="1" parent="WIyWlLk6GJQsqaUBKTNV-1" source="RjRyZYwcBxq85FyGvVtr-22" target="RjRyZYwcBxq85FyGvVtr-69">
          <mxGeometry relative="1" as="geometry" />
        </mxCell>
        <mxCell id="RjRyZYwcBxq85FyGvVtr-22" value="2.0" style="ellipse;whiteSpace=wrap;html=1;rounded=1;" vertex="1" parent="WIyWlLk6GJQsqaUBKTNV-1">
          <mxGeometry x="1470" y="20" width="80" height="80" as="geometry" />
        </mxCell>
        <mxCell id="RjRyZYwcBxq85FyGvVtr-72" style="edgeStyle=orthogonalEdgeStyle;rounded=0;orthogonalLoop=1;jettySize=auto;html=1;entryX=0;entryY=0.5;entryDx=0;entryDy=0;" edge="1" parent="WIyWlLk6GJQsqaUBKTNV-1" source="RjRyZYwcBxq85FyGvVtr-24" target="RjRyZYwcBxq85FyGvVtr-69">
          <mxGeometry relative="1" as="geometry" />
        </mxCell>
        <mxCell id="RjRyZYwcBxq85FyGvVtr-24" value="1.0" style="ellipse;whiteSpace=wrap;html=1;rounded=1;" vertex="1" parent="WIyWlLk6GJQsqaUBKTNV-1">
          <mxGeometry x="1470" y="140" width="80" height="80" as="geometry" />
        </mxCell>
        <mxCell id="RjRyZYwcBxq85FyGvVtr-71" style="edgeStyle=orthogonalEdgeStyle;rounded=0;orthogonalLoop=1;jettySize=auto;html=1;entryX=0.25;entryY=1;entryDx=0;entryDy=0;" edge="1" parent="WIyWlLk6GJQsqaUBKTNV-1" source="RjRyZYwcBxq85FyGvVtr-26" target="RjRyZYwcBxq85FyGvVtr-69">
          <mxGeometry relative="1" as="geometry" />
        </mxCell>
        <mxCell id="RjRyZYwcBxq85FyGvVtr-26" value="1.5" style="ellipse;whiteSpace=wrap;html=1;rounded=1;" vertex="1" parent="WIyWlLk6GJQsqaUBKTNV-1">
          <mxGeometry x="1470" y="265" width="80" height="80" as="geometry" />
        </mxCell>
        <mxCell id="RjRyZYwcBxq85FyGvVtr-70" value="" style="edgeStyle=orthogonalEdgeStyle;rounded=0;orthogonalLoop=1;jettySize=auto;html=1;" edge="1" parent="WIyWlLk6GJQsqaUBKTNV-1" source="RjRyZYwcBxq85FyGvVtr-28" target="RjRyZYwcBxq85FyGvVtr-69">
          <mxGeometry relative="1" as="geometry">
            <Array as="points">
              <mxPoint x="1730" y="430" />
            </Array>
          </mxGeometry>
        </mxCell>
        <mxCell id="RjRyZYwcBxq85FyGvVtr-28" value="0,8" style="ellipse;whiteSpace=wrap;html=1;rounded=1;" vertex="1" parent="WIyWlLk6GJQsqaUBKTNV-1">
          <mxGeometry x="1470" y="390" width="80" height="80" as="geometry" />
        </mxCell>
        <mxCell id="RjRyZYwcBxq85FyGvVtr-80" style="edgeStyle=orthogonalEdgeStyle;rounded=0;orthogonalLoop=1;jettySize=auto;html=1;entryX=0.5;entryY=1;entryDx=0;entryDy=0;" edge="1" parent="WIyWlLk6GJQsqaUBKTNV-1" source="RjRyZYwcBxq85FyGvVtr-30" target="RjRyZYwcBxq85FyGvVtr-78">
          <mxGeometry relative="1" as="geometry" />
        </mxCell>
        <mxCell id="RjRyZYwcBxq85FyGvVtr-30" value="0.5" style="ellipse;whiteSpace=wrap;html=1;rounded=1;" vertex="1" parent="WIyWlLk6GJQsqaUBKTNV-1">
          <mxGeometry x="1330" y="810" width="80" height="80" as="geometry" />
        </mxCell>
        <mxCell id="RjRyZYwcBxq85FyGvVtr-79" value="" style="edgeStyle=orthogonalEdgeStyle;rounded=0;orthogonalLoop=1;jettySize=auto;html=1;" edge="1" parent="WIyWlLk6GJQsqaUBKTNV-1" source="RjRyZYwcBxq85FyGvVtr-32" target="RjRyZYwcBxq85FyGvVtr-78">
          <mxGeometry relative="1" as="geometry" />
        </mxCell>
        <mxCell id="RjRyZYwcBxq85FyGvVtr-32" value="0.4" style="ellipse;whiteSpace=wrap;html=1;rounded=1;" vertex="1" parent="WIyWlLk6GJQsqaUBKTNV-1">
          <mxGeometry x="1330" y="680" width="80" height="80" as="geometry" />
        </mxCell>
        <mxCell id="RjRyZYwcBxq85FyGvVtr-81" style="edgeStyle=orthogonalEdgeStyle;rounded=0;orthogonalLoop=1;jettySize=auto;html=1;entryX=0.5;entryY=0;entryDx=0;entryDy=0;" edge="1" parent="WIyWlLk6GJQsqaUBKTNV-1" source="RjRyZYwcBxq85FyGvVtr-34" target="RjRyZYwcBxq85FyGvVtr-78">
          <mxGeometry relative="1" as="geometry" />
        </mxCell>
        <mxCell id="RjRyZYwcBxq85FyGvVtr-34" value="0,3" style="ellipse;whiteSpace=wrap;html=1;rounded=1;" vertex="1" parent="WIyWlLk6GJQsqaUBKTNV-1">
          <mxGeometry x="1330" y="550" width="80" height="80" as="geometry" />
        </mxCell>
        <mxCell id="RjRyZYwcBxq85FyGvVtr-65" value="" style="edgeStyle=orthogonalEdgeStyle;rounded=0;orthogonalLoop=1;jettySize=auto;html=1;entryX=0;entryY=0.5;entryDx=0;entryDy=0;" edge="1" parent="WIyWlLk6GJQsqaUBKTNV-1" source="RjRyZYwcBxq85FyGvVtr-36" target="RjRyZYwcBxq85FyGvVtr-64">
          <mxGeometry relative="1" as="geometry">
            <Array as="points">
              <mxPoint x="1650" y="450" />
            </Array>
          </mxGeometry>
        </mxCell>
        <mxCell id="RjRyZYwcBxq85FyGvVtr-36" value="1.0" style="ellipse;whiteSpace=wrap;html=1;rounded=1;" vertex="1" parent="WIyWlLk6GJQsqaUBKTNV-1">
          <mxGeometry x="1597" y="540" width="80" height="80" as="geometry" />
        </mxCell>
        <mxCell id="RjRyZYwcBxq85FyGvVtr-68" style="edgeStyle=orthogonalEdgeStyle;rounded=0;orthogonalLoop=1;jettySize=auto;html=1;entryX=0.5;entryY=1;entryDx=0;entryDy=0;" edge="1" parent="WIyWlLk6GJQsqaUBKTNV-1" source="RjRyZYwcBxq85FyGvVtr-38" target="RjRyZYwcBxq85FyGvVtr-64">
          <mxGeometry relative="1" as="geometry" />
        </mxCell>
        <mxCell id="RjRyZYwcBxq85FyGvVtr-38" value="0.4" style="ellipse;whiteSpace=wrap;html=1;rounded=1;" vertex="1" parent="WIyWlLk6GJQsqaUBKTNV-1">
          <mxGeometry x="1727" y="540" width="80" height="80" as="geometry" />
        </mxCell>
        <mxCell id="RjRyZYwcBxq85FyGvVtr-67" style="edgeStyle=orthogonalEdgeStyle;rounded=0;orthogonalLoop=1;jettySize=auto;html=1;entryX=0.5;entryY=1;entryDx=0;entryDy=0;" edge="1" parent="WIyWlLk6GJQsqaUBKTNV-1" source="RjRyZYwcBxq85FyGvVtr-40" target="RjRyZYwcBxq85FyGvVtr-64">
          <mxGeometry relative="1" as="geometry" />
        </mxCell>
        <mxCell id="RjRyZYwcBxq85FyGvVtr-40" value="0.8" style="ellipse;whiteSpace=wrap;html=1;rounded=1;" vertex="1" parent="WIyWlLk6GJQsqaUBKTNV-1">
          <mxGeometry x="1848" y="540" width="80" height="80" as="geometry" />
        </mxCell>
        <mxCell id="RjRyZYwcBxq85FyGvVtr-66" style="edgeStyle=orthogonalEdgeStyle;rounded=0;orthogonalLoop=1;jettySize=auto;html=1;entryX=1;entryY=0.5;entryDx=0;entryDy=0;exitX=0.5;exitY=0;exitDx=0;exitDy=0;" edge="1" parent="WIyWlLk6GJQsqaUBKTNV-1" source="RjRyZYwcBxq85FyGvVtr-42" target="RjRyZYwcBxq85FyGvVtr-64">
          <mxGeometry relative="1" as="geometry">
            <Array as="points">
              <mxPoint x="2013" y="450" />
            </Array>
          </mxGeometry>
        </mxCell>
        <mxCell id="RjRyZYwcBxq85FyGvVtr-42" value="1.40" style="ellipse;whiteSpace=wrap;html=1;rounded=1;" vertex="1" parent="WIyWlLk6GJQsqaUBKTNV-1">
          <mxGeometry x="1973" y="540" width="80" height="80" as="geometry" />
        </mxCell>
        <mxCell id="RjRyZYwcBxq85FyGvVtr-85" style="edgeStyle=orthogonalEdgeStyle;rounded=0;orthogonalLoop=1;jettySize=auto;html=1;" edge="1" parent="WIyWlLk6GJQsqaUBKTNV-1" source="RjRyZYwcBxq85FyGvVtr-44">
          <mxGeometry relative="1" as="geometry">
            <mxPoint x="2250" y="1739.9999999999995" as="targetPoint" />
          </mxGeometry>
        </mxCell>
        <mxCell id="RjRyZYwcBxq85FyGvVtr-44" value="0.5&lt;br&gt;" style="ellipse;whiteSpace=wrap;html=1;rounded=1;" vertex="1" parent="WIyWlLk6GJQsqaUBKTNV-1">
          <mxGeometry x="1380" y="1700" width="80" height="80" as="geometry" />
        </mxCell>
        <mxCell id="RjRyZYwcBxq85FyGvVtr-46" value="0&lt;br&gt;" style="ellipse;whiteSpace=wrap;html=1;rounded=1;" vertex="1" parent="WIyWlLk6GJQsqaUBKTNV-1">
          <mxGeometry x="1380" y="1840" width="80" height="80" as="geometry" />
        </mxCell>
        <mxCell id="RjRyZYwcBxq85FyGvVtr-51" value="" style="edgeStyle=orthogonalEdgeStyle;rounded=0;orthogonalLoop=1;jettySize=auto;html=1;" edge="1" parent="WIyWlLk6GJQsqaUBKTNV-1" source="RjRyZYwcBxq85FyGvVtr-48" target="RjRyZYwcBxq85FyGvVtr-50">
          <mxGeometry relative="1" as="geometry" />
        </mxCell>
        <mxCell id="RjRyZYwcBxq85FyGvVtr-48" value="Бонус" style="shape=hexagon;perimeter=hexagonPerimeter2;whiteSpace=wrap;html=1;fixedSize=1;rounded=1;" vertex="1" parent="WIyWlLk6GJQsqaUBKTNV-1">
          <mxGeometry x="770" y="2090" width="140" height="80" as="geometry" />
        </mxCell>
        <mxCell id="RjRyZYwcBxq85FyGvVtr-53" value="" style="edgeStyle=orthogonalEdgeStyle;rounded=0;orthogonalLoop=1;jettySize=auto;html=1;" edge="1" parent="WIyWlLk6GJQsqaUBKTNV-1" source="RjRyZYwcBxq85FyGvVtr-50" target="RjRyZYwcBxq85FyGvVtr-52">
          <mxGeometry relative="1" as="geometry" />
        </mxCell>
        <mxCell id="RjRyZYwcBxq85FyGvVtr-50" value="Просчет бонуса" style="whiteSpace=wrap;html=1;rounded=1;" vertex="1" parent="WIyWlLk6GJQsqaUBKTNV-1">
          <mxGeometry x="380" y="2100" width="120" height="60" as="geometry" />
        </mxCell>
        <mxCell id="RjRyZYwcBxq85FyGvVtr-52" value="Выплата" style="rhombus;whiteSpace=wrap;html=1;rounded=1;" vertex="1" parent="WIyWlLk6GJQsqaUBKTNV-1">
          <mxGeometry x="80" y="2040" width="200" height="180" as="geometry" />
        </mxCell>
        <mxCell id="RjRyZYwcBxq85FyGvVtr-77" style="edgeStyle=orthogonalEdgeStyle;rounded=0;orthogonalLoop=1;jettySize=auto;html=1;" edge="1" parent="WIyWlLk6GJQsqaUBKTNV-1" source="RjRyZYwcBxq85FyGvVtr-64">
          <mxGeometry relative="1" as="geometry">
            <mxPoint x="2250" y="310" as="targetPoint" />
            <Array as="points">
              <mxPoint x="1830" y="310" />
            </Array>
          </mxGeometry>
        </mxCell>
        <mxCell id="RjRyZYwcBxq85FyGvVtr-64" value="Просчет" style="shape=step;perimeter=stepPerimeter;whiteSpace=wrap;html=1;fixedSize=1;rounded=1;" vertex="1" parent="WIyWlLk6GJQsqaUBKTNV-1">
          <mxGeometry x="1770" y="410" width="120" height="80" as="geometry" />
        </mxCell>
        <mxCell id="RjRyZYwcBxq85FyGvVtr-75" style="edgeStyle=orthogonalEdgeStyle;rounded=0;orthogonalLoop=1;jettySize=auto;html=1;" edge="1" parent="WIyWlLk6GJQsqaUBKTNV-1" source="RjRyZYwcBxq85FyGvVtr-69">
          <mxGeometry relative="1" as="geometry">
            <mxPoint x="2250" y="160" as="targetPoint" />
          </mxGeometry>
        </mxCell>
        <mxCell id="RjRyZYwcBxq85FyGvVtr-69" value="Просчет" style="shape=step;perimeter=stepPerimeter;whiteSpace=wrap;html=1;fixedSize=1;rounded=1;" vertex="1" parent="WIyWlLk6GJQsqaUBKTNV-1">
          <mxGeometry x="1670" y="120" width="120" height="80" as="geometry" />
        </mxCell>
        <mxCell id="RjRyZYwcBxq85FyGvVtr-82" style="edgeStyle=orthogonalEdgeStyle;rounded=0;orthogonalLoop=1;jettySize=auto;html=1;exitX=1;exitY=0.5;exitDx=0;exitDy=0;" edge="1" parent="WIyWlLk6GJQsqaUBKTNV-1" source="RjRyZYwcBxq85FyGvVtr-78">
          <mxGeometry relative="1" as="geometry">
            <mxPoint x="2250" y="450" as="targetPoint" />
            <Array as="points">
              <mxPoint x="1570" y="720" />
              <mxPoint x="1570" y="910" />
              <mxPoint x="2250" y="910" />
            </Array>
          </mxGeometry>
        </mxCell>
        <mxCell id="RjRyZYwcBxq85FyGvVtr-78" value="Просчет" style="shape=step;perimeter=stepPerimeter;whiteSpace=wrap;html=1;fixedSize=1;rounded=1;" vertex="1" parent="WIyWlLk6GJQsqaUBKTNV-1">
          <mxGeometry x="1440" y="680" width="120" height="80" as="geometry" />
        </mxCell>
      </root>
    </mxGraphModel>
  </diagram>
</mxfile>
